# xmcd
#
# Track frame offsets:
#	150
#	19625
#	43817
#	65057
#	90487
#	112037
#	135420
#	172885
#	194032
#	212172
#
# Disc length: 3128 seconds
#
# Revision: 3950908794
# Processed by: cddbd v1.5.2PL0 Copyright (c) Steve Scherf et al.
# Submitted via: EZCDAudioConverter 8.0.2.1
#
DISCID=8d0c360a
DTITLE=Khánh Hà - Biển Và Em
DYEAR=2003
DGENRE=Miscellaneous
TTITLE0=Đùng bao giờ hứa
TTITLE1=Biển Và Em
TTITLE2=Kiếp dã tràng
TTITLE3=Một chiều đông
TTITLE4=Cõi mộng
TTITLE5=Giọt lệ cho ngàn sau
TTITLE6=LK Đoàn Chuẩn, Từ Linh
TTITLE7=Giấc mơ hồi hương
TTITLE8=Thân cỏ hoa
TTITLE9=Nửa hồn thương đau
EXTD=
EXTT0=
EXTT1=
EXTT2=
EXTT3=
EXTT4=
EXTT5=
EXTT6=
EXTT7=
EXTT8=
EXTT9=
PLAYORDER=
